<svg id="_x33_0" enable-background="new 0 0 64 64" height="512" viewBox="0 0 64 64" width="512" xmlns="http://www.w3.org/2000/svg"><g><g><path d="m58 2h-52c-2.21 0-4 1.79-4 4v43c0 2.21 1.79 4 4 4h56v-47c0-2.21-1.79-4-4-4z" fill="#aab2bd"/></g><g><path d="m57 6h-50c-.55 0-1 .45-1 1v41c0 .55.45 1 1 1l51-1v-41c0-.55-.45-1-1-1z" fill="#e6e9ed"/></g><g><path d="m34 52-1.74 2.31c-.79 1.07-2.04 1.69-3.37 1.69-1.2 0-2.35-.51-3.15-1.41l-1.12-1.59-2.82-4.01-2.8-3.99 3.5-3.5 5.5 5.5 1.2-4.79c.26-1.02.72-1.96 1.37-2.76.64-.8 1.45-1.46 2.39-1.93.69-.34 1.43-.58 2.19-.68l3.83-.55 1.02 6.71 2-1.2 1 3.2-2 17h-7z" fill="#ff826e"/></g><g><path d="m56 62h-7l-2-17 1-3.2 2 1.2 1.02-6.71 2.86.41c1.39.2 2.73.71 3.91 1.49.07.05.14.1.21.15 2.16 1.53 3.57 3.88 3.92 6.47.05.41.08.83.08 1.25v15.94z" fill="#ff826e"/></g><g><path d="m47 45 2 17h-8l2-17z" fill="#fcd770"/></g><g><path d="m48 41.8-1 3.2h-4l-1-3.2 3-1.8z" fill="#fcd770"/></g><g><path d="m45 40-3 1.8-2 1.2-1.02-6.71 2.02-.29z" fill="#fc6e51"/></g><g><path d="m51.02 36.29-1.02 6.71-2-1.2-3-1.8 4-4z" fill="#fc6e51"/></g><g><path d="m22.5 41.5-3.5 3.5-6-.51c-.86-.14-1.6-.58-2.12-1.2-.53-.62-.84-1.43-.84-2.29 0-.55.45-1 1-1h5.96l.29-.29c.46-.46 1.07-.71 1.71-.71s1.25.25 1.71.71z" fill="#f0d0b4"/></g><g><path d="m48.07 32.29.93 3.71-4 4-4-4 .93-3.71c.92.46 1.96.71 3.07.71s2.15-.25 3.07-.71z" fill="#f0d0b4"/></g><g><path d="m56 24c0 1.66-1.34 3-3 3h-1.07-.01c.06-.33.08-.66.08-1v-5h1c.83 0 1.58.34 2.12.88s.88 1.29.88 2.12z" fill="#f0d0b4"/></g><g><path d="m38 26v-4.42c0-.19.02-.38.05-.57.2-1.3 1.12-2.4 2.4-2.83.36-.12.75-.18 1.13-.18h6.42c0 1.98 1.92 3.51 4 2.84v.16 5c0 .34-.02.67-.08 1-.32 2.34-1.81 4.3-3.85 5.29-.92.46-1.96.71-3.07.71s-2.15-.25-3.07-.71c-.7-.34-1.33-.79-1.88-1.34-1.05-1.05-1.76-2.41-1.97-3.95-.06-.33-.08-.66-.08-1z" fill="#f0d0b4"/></g><g><path d="m38 26c0 .34.02.67.08 1h-.01-1.07c-.83 0-1.58-.34-2.12-.88s-.88-1.29-.88-2.12c0-.86.36-1.63.94-2.18.53-.51 1.26-.82 2.06-.82h1l.05.01c-.03.19-.05.38-.05.57z" fill="#f0d0b4"/></g><g><path d="m52.45 20.66c-.15.07-.3.13-.45.18-2.08.67-4-.86-4-2.84h-6.42c-.38 0-.77.06-1.13.18-1.28.43-2.2 1.53-2.4 2.83l-.05-.01h-1c-.8 0-1.53.31-2.06.82l-.6-1.81c-.23-.67-.34-1.37-.34-2.07 0-1.68.64-3.24 1.7-4.4 1.05-1.18 2.53-1.96 4.21-2.13l4.09-.41.65-.97c.84-1.27 2.27-2.03 3.79-2.03 1.04 0 2.02.36 2.81.96.78.61 1.36 1.48 1.61 2.49l.14.55c1.66 0 3 1.34 3 3 0 1.31-.84 2.42-2.01 2.82.01.07.01.13.01.2 0 1.1-.55 2.17-1.55 2.64z" fill="#b27946"/></g><g><circle cx="42" cy="24" r="1"/><circle cx="48" cy="24" r="1"/><path d="m42.895 26.553-1.789.895.105.211c.722 1.444 2.174 2.341 3.789 2.341s3.067-.897 3.789-2.342l.105-.211-1.789-.895-.105.212c-.381.762-1.147 1.236-2 1.236s-1.619-.474-2-1.236z"/><path d="m63 6c0-2.757-2.243-5-5-5h-52c-2.757 0-5 2.243-5 5v43c0 2.757 2.243 5 5 5h18.108l.816 1.16.07.089c.989 1.112 2.409 1.751 3.899 1.751 1.599 0 3.125-.751 4.107-2.01v8.01h30s0-18.736 0-19zm-30 41v4.667l-1.535 2.047c-.605.806-1.566 1.286-2.572 1.286-.9 0-1.76-.378-2.367-1.04l-6.224-8.848 2.198-2.198 6.042 6.042 1.626-6.507c.439-1.754 1.618-3.225 3.236-4.033.595-.298 1.23-.497 1.892-.591l2.848-.407 1.091 7.207 2.191-1.314.557 1.784-1.872 15.905h-5.111v-14zm24-32v9 12.618c-.945-.445-1.952-.764-2.983-.912l-4.209-.601-.582-2.325c1.715-1.073 2.991-2.773 3.511-4.78h.263c2.206 0 4-1.794 4-4 0-1.731-1.11-3.193-2.651-3.75.334-.519.555-1.127.626-1.78 1.235-.695 2.025-2.013 2.025-3.47 0-1.932-1.377-3.549-3.201-3.92-.663-2.409-2.848-4.08-5.359-4.08-1.863 0-3.593.926-4.626 2.476l-.385.576-3.623.362c-3.88.389-6.806 3.622-6.806 7.522 0 .815.131 1.62.388 2.391l.427 1.281c-.505.668-.815 1.491-.815 2.392 0 2.206 1.794 4 4 4h.263c.519 2.007 1.796 3.708 3.511 4.78l-.582 2.325-5.18.739c-.874.125-1.717.389-2.503.782-2.141 1.07-3.701 3.016-4.281 5.338l-.771 3.079-6.043-6.043c-1.289-1.289-3.539-1.289-4.828 0h-5.545c-1.103 0-2 .897-2 2 0 2.229 1.596 4.113 3.875 4.489l5.534.468 1.437 2.043h-12.887v-41h41.44 8.56zm-20 7v4c-1.103 0-2-.897-2-2s.897-2 2-2zm.291-2h-.291c-.535 0-1.045.11-1.512.301l-.203-.609c-.189-.566-.285-1.157-.285-1.756 0-2.867 2.152-5.245 5.006-5.531l4.564-.456.908-1.363c.663-.993 1.769-1.586 2.962-1.586 1.637 0 3.057 1.108 3.453 2.695l.326 1.305h.781c1.103 0 2 .897 2 2 0 .848-.536 1.602-1.334 1.874l-.803.309.137.834c.001.776-.384 1.46-.979 1.741-.993.468-1.736.159-2.092-.066-.581-.37-.929-1.002-.929-1.692v-1h-1c-.552 0-1-.448-1-1s.448-1 1-1v-2c-1.654 0-3 1.346-3 3 0 .351.064.687.175 1h-3.594c-.491 0-.979.079-1.449.235-1.349.45-2.37 1.485-2.841 2.765zm15.709 2c1.103 0 2 .897 2 2s-.897 2-2 2zm-14-.419c0-1.113.709-2.097 1.763-2.448.265-.088.541-.133.818-.133h5.556c.25.973.847 1.827 1.721 2.381.654.414 1.389.615 2.142.613v4.006c0 3.309-2.691 6-6 6s-6-2.691-6-6zm6 12.419c.828 0 1.628-.127 2.379-.361l.513 2.055-2.892 2.892-2.893-2.893.513-2.055c.752.235 1.552.362 2.38.362zm-4.354 3.06 2.741 2.741-2.622 1.573-.643-4.24zm3.243 8.94h2.222l1.764 15h-5.751zm2.376-2h-2.531l-.546-1.747 1.812-1.087 1.811 1.087zm.348-4.198 2.741-2.741.524.075-.643 4.24zm-27.992 4.163-5.457-.458c-1.23-.205-2.123-1.259-2.123-2.507h6.373l.586-.586c.535-.533 1.465-.533 2 0l1.086 1.086zm42.379 17.035h-4v-14h-2v14h-5.111l-1.872-15.905.557-1.784 2.191 1.314 1.091-7.207 1.877.268c1.243.178 2.453.64 3.498 1.336 2.36 1.574 3.769 4.206 3.769 7.042zm-2-23.141v-30.859c0-1.103-.897-2-2-2h-50c-1.103 0-2 .897-2 2v41c0 1.103.897 2 2 2h14.294l1.407 2h-16.701c-1.654 0-3-1.346-3-3v-43c0-1.654 1.346-3 3-3h52c1.654 0 3 1.346 3 3v33.922c-.56-.772-1.235-1.461-2-2.063z"/><path d="m11.895 26.105c.12 1.08 1.029 1.895 2.116 1.895 1.063 0 1.97-.794 2.111-1.849l1.754-13.151h14.124v-2h-14.124c-1 0-1.853.747-1.982 1.736l-1.754 13.15c-.017.131-.243.129-.257-.002l-.79-7.104c-.112-1.014-.967-1.78-1.989-1.78h-2.104v2h2.104z"/><path d="m9 13h4v2h-4z"/><path d="m28.293 15.293-3.293 3.293-3.586-3.586h-2.414v2h1.586l3 3-3.293 3.293 1.414 1.414 3.293-3.293 3.293 3.293 1.414-1.414-3.293-3.293 3.293-3.293z"/><path d="m18 28h4v2h-4z"/><path d="m24 28h8v2h-8z"/><path d="m18 32h14v2h-14z"/></g></g></svg>