<svg height="512" viewBox="0 0 512 512" width="512" xmlns="http://www.w3.org/2000/svg" fill="#6a737c"><path d="m450.352 296.776-82.352-15.418v-41.392a79.8 79.8 0 0 0 32-63.966 31.989 31.989 0 0 0 16-59.695v-35.643a49.221 49.221 0 0 0 -51.806-49.154 36.7 36.7 0 0 0 -30.083-15.508h-46.111a64.068 64.068 0 0 0 -63.935 61.447c-.06.934-.065 38.855-.065 38.855a31.989 31.989 0 0 0 16 59.698 79.793 79.793 0 0 0 32 63.967v32.033h-88a39.963 39.963 0 0 0 -31.993 16.019 41.322 41.322 0 0 0 -3.671-4.276l-.078-.078a40.042 40.042 0 0 0 -28.258-11.665h-24v-88h8a8.009 8.009 0 0 1 8 8v48h16v-48a24.028 24.028 0 0 0 -24-24h-8v-8a24 24 0 0 0 -48 0v112h-24a8 8 0 0 0 -8 8v208a8 8 0 0 0 8 8h256a8 8 0 0 0 8-8v-80h8v-16h-8v-48.955l11.61-9.288 12.39 43.365v118.878h16v-118.878l12.39-43.365 30.61 24.49a8 8 0 0 0 12.921-5.137l7.166-51.151 56.32 10.541a40.01 40.01 0 0 1 32.593 39.34v144.16h16v-144.16a56.019 56.019 0 0 0 -45.648-55.064zm-122.039 21.024-8.313 29.08-8.308-29.08a7.985 7.985 0 0 0 -1.287-2.6l-22.405-29.867v-36.017a79.948 79.948 0 0 0 64 0v36.016l-22.4 29.868a7.985 7.985 0 0 0 -1.287 2.6zm-.222-186.8a45.5 45.5 0 0 0 -16.182 0 20.819 20.819 0 0 0 -20.709-19h-27.395q3.512-5.331 7.047-11.5l3.417-.311a213.315 213.315 0 0 0 81.987-24.868 292.415 292.415 0 0 0 19.978 36.679h-27.434a20.819 20.819 0 0 0 -20.709 19zm-75.291 29a4.805 4.805 0 0 1 -4.8-4.8v-22.4a4.805 4.805 0 0 1 4.8-4.8h38.4a4.805 4.805 0 0 1 4.8 4.8v22.4a4.805 4.805 0 0 1 -4.8 4.8zm91.2-27.2a4.805 4.805 0 0 1 4.8-4.8h38.4a4.805 4.805 0 0 1 4.8 4.8v22.4a4.805 4.805 0 0 1 -4.8 4.8h-38.4a4.805 4.805 0 0 1 -4.8-4.8zm67.3 22.5a16.181 16.181 0 0 1 -3.507 2.65 20.84 20.84 0 0 0 .2-2.754v-22.396a20.774 20.774 0 0 0 -.2-2.76 15.967 15.967 0 0 1 3.507 25.26zm-11.3-74.638v31.338h-4.163c-13.602-17.582-25.115-43.333-27.837-49.633v-14.909a33.229 33.229 0 0 1 32 33.2zm-112-48.662h46.111a20.818 20.818 0 0 1 17.889 10.048v17.361a197.219 197.219 0 0 1 -79.18 24.848l-32.82 2.983v-7.24c0-.572.023-1.138.043-1.7.011-.12.024-.234.041-.323l-.032-.007a48.052 48.052 0 0 1 47.948-45.97zm-48 71.305 11.033-1c-2.313 3.559-4.6 6.8-6.852 9.695h-4.181zm-16 40.695a16.006 16.006 0 0 1 8.205-13.96 20.806 20.806 0 0 0 -.205 2.76v22.4a20.9 20.9 0 0 0 .2 2.757 16.008 16.008 0 0 1 -8.2-13.957zm32 32h35.2a20.824 20.824 0 0 0 20.8-20.8v-7.785a29.327 29.327 0 0 1 16 0v7.785a20.824 20.824 0 0 0 20.8 20.8h35.2a64 64 0 0 1 -128 0zm-72 112h88v160h-88a39.792 39.792 0 0 0 -24 8.019v-144.019a24.028 24.028 0 0 1 24-24zm-104 12.687-8 8-8-8v-116.687h16zm-8-148.687a8.009 8.009 0 0 1 8 8v8h-16v-8a8.009 8.009 0 0 1 8-8zm-40 136h16v16a8 8 0 0 0 2.343 5.657l16 16a7.976 7.976 0 0 0 5.657 2.343h56v-16h-36.686l2.343-2.343a8 8 0 0 0 2.343-5.657v-16h24a23.959 23.959 0 0 1 24 24v144.022a39.788 39.788 0 0 0 -24-8.022h-88zm0 176h88a24.039 24.039 0 0 1 22.624 16h-110.624zm129.376 16a24.039 24.039 0 0 1 22.624-16h88v16zm126.624-157.445v-10.555l4.948 6.6zm82.027 14.422-22.975-18.377 16.323-21.764 11.941 2.389z"/><path d="m416 416h-72v16h72v64h16v-104h-16z"/><path d="m346.319 195.1-4.638-15.313a99.062 99.062 0 0 1 -28.747 4.213h-16.934v16h16.934a115.037 115.037 0 0 0 33.385-4.9z"/><path d="m48 344h80v16h-80z"/><path d="m48 376h80v16h-80z"/><path d="m48 408h80v16h-80z"/><path d="m176 312h80v16h-80z"/><path d="m176 344h80v16h-80z"/><path d="m176 376h48v16h-48z"/><path d="m176 408h80v16h-80z"/><path d="m240 376h16v16h-16z"/></svg>
