<svg id="Capa_1" enable-background="new 0 0 512 512" height="512" viewBox="0 0 512 512" width="512" xmlns="http://www.w3.org/2000/svg" fill="#6a737c"><g><path d="m392.274 136.274c-24.8 0-65.064 9.31-116.051 53.66-3.125 2.718-3.455 7.456-.736 10.581s7.456 3.454 10.581.736c47.487-41.307 83.966-49.978 106.206-49.978 57.747.001 104.726 46.981 104.726 104.727s-46.979 104.726-104.726 104.726c-29.5 0-63.447-14.942-98.174-43.211-27.859-22.679-47.413-46.641-51.06-51.228-.172-.216-4.855-6.015-12.699-14.434l-.816-.954c-18.737-19.995-66.903-66.527-109.8-66.527-39.496 0-71.629 32.133-71.629 71.629s32.133 71.629 71.629 71.629c39.114 0 82.643-38.661 104.221-60.638 2.959 3.309 5.451 6.25 7.364 8.645 3.806 4.786 24.262 29.857 53.32 53.511 37.968 30.907 74.185 46.579 107.644 46.579 66.018-.001 119.726-53.71 119.726-119.727s-53.708-119.726-119.726-119.726zm-272.548 176.355c-31.225 0-56.629-25.404-56.629-56.629s25.404-56.629 56.629-56.629c34.338 0 76.151 38.458 93.98 56.629-17.83 18.17-59.643 56.629-93.98 56.629z"/><path d="m227.006 309.809c-47.967 42.083-84.815 50.917-107.281 50.917-57.746 0-104.725-46.98-104.725-104.726s46.979-104.726 104.726-104.726c29.5 0 63.447 14.942 98.174 43.211 27.859 22.679 47.413 46.641 51.06 51.228.172.216 13.178 15.106 13.467 15.415 18.737 19.995 66.95 66.5 109.847 66.5 39.496 0 71.629-32.133 71.629-71.629s-32.133-71.629-71.629-71.629c-39.115 0-82.645 38.664-104.223 60.64-2.96-3.311-5.447-6.25-7.362-8.647-3.806-4.786-24.262-29.857-53.32-53.511-37.968-30.907-74.185-46.579-107.644-46.579-66.017.001-119.725 53.71-119.725 119.727s53.708 119.726 119.726 119.726c25.042 0 65.698-9.479 117.173-54.641 3.114-2.731 3.423-7.47.691-10.584s-7.47-3.424-10.584-.692zm165.268-110.438c31.225 0 56.629 25.404 56.629 56.629s-25.404 56.629-56.629 56.629c-34.338 0-76.151-38.458-93.98-56.629 17.83-18.17 59.643-56.629 93.98-56.629z"/></g></svg>
